<svg height="372pt" viewBox="0 0 372 372" width="372pt" xmlns="http://www.w3.org/2000/svg"><path d="m2.507812 183.265625c-.878906 1.71875-.878906 3.75 0 5.46875 35.222657 68.917969 106.09375 112.289063 183.492188 112.289063s148.269531-43.371094 183.492188-112.289063c.878906-1.71875.878906-3.75 0-5.46875-35.222657-68.917969-106.09375-112.289063-183.492188-112.289063s-148.269531 43.371094-183.492188 112.289063zm183.492188-100.265625c71.785156-.023438 137.714844 39.601562 171.382812 103-33.675781 63.394531-99.597656 103.023438-171.382812 103.023438s-137.707031-39.628907-171.382812-103.023438c33.667968-63.398438 99.597656-103.023438 171.382812-103zm0 0"/><path d="m186 222c10.675781-.003906 20.796875-4.746094 27.636719-12.941406 6.839843-8.191406 9.691406-19 7.785156-29.503906-.339844-1.859376-1.539063-3.453126-3.234375-4.292969-1.695312-.839844-3.6875-.832031-5.378906.019531-1.660156.84375-3.5 1.28125-5.363282 1.273438-6.625-.003907-11.996093-5.375-12-12-.007812-1.863282.429688-3.703126 1.273438-5.367188.851562-1.6875.859375-3.679688.019531-5.375-.84375-1.695312-2.433593-2.894531-4.296875-3.234375-13.414062-2.433594-27.050781 2.917969-35.226562 13.824219-8.179688 10.90625-9.496094 25.496094-3.398438 37.691406 6.09375 12.195312 18.550782 19.898438 32.183594 19.90625zm-2.4375-59.878906c-.078125.800781-.117188 1.613281-.117188 2.433594.011719 13.25 10.75 23.988281 24 24 .820313 0 1.628907-.039063 2.433594-.117188-1.285156 12.558594-12.074218 21.976562-24.691406 21.546875-12.617188-.425781-22.746094-10.554687-23.171875-23.171875-.429687-12.617188 8.988281-23.40625 21.546875-24.691406zm0 0"/><path d="m186 252c36.4375-.03125 65.96875-29.5625 66-66 .003906-30.582031-21.003906-57.164062-50.761719-64.21875-29.757812-7.054688-60.464843 7.261719-74.191406 34.589844-4.664063 9.179687-7.078125 19.335937-7.046875 29.628906.039062 36.433594 29.566406 65.960938 66 66zm-48.238281-90.230469c10.53125-20.976562 33.40625-32.75 56.597656-29.121093 23.191406 3.625 41.378906 21.824218 44.996094 45.015624 3.617187 23.191407-8.164063 46.0625-29.144531 56.582032-7.5 3.808594-15.800782 5.78125-24.210938 5.753906-29.808594-.035156-53.964844-24.191406-54-54-.023438-8.417969 1.949219-16.722656 5.761719-24.230469zm0 0"/><path d="m6 103.070312c3.3125 0 6-2.6875 6-6v-85.070312h85.070312c3.3125 0 6-2.6875 6-6s-2.6875-6-6-6h-91.070312c-3.3125 0-6 2.6875-6 6v91.070312c0 3.3125 2.6875 6 6 6zm0 0"/><path d="m6 372h91.070312c3.3125 0 6-2.6875 6-6s-2.6875-6-6-6h-85.070312v-85.070312c0-3.3125-2.6875-6-6-6s-6 2.6875-6 6v91.070312c0 3.3125 2.6875 6 6 6zm0 0"/><path d="m366 268.929688c-3.3125 0-6 2.6875-6 6v85.070312h-85.070312c-3.3125 0-6 2.6875-6 6s2.6875 6 6 6h91.070312c3.3125 0 6-2.6875 6-6v-91.070312c0-3.3125-2.6875-6-6-6zm0 0"/><path d="m274.929688 12h85.070312v85.070312c0 3.3125 2.6875 6 6 6s6-2.6875 6-6v-91.070312c0-3.3125-2.6875-6-6-6h-91.070312c-3.3125 0-6 2.6875-6 6s2.6875 6 6 6zm0 0"/></svg>