<svg height="512pt" viewBox="0 -49 512 511" width="512pt" xmlns="http://www.w3.org/2000/svg"><path d="m225.097656 197c-2.074218 0-4.136718-.644531-5.878906-1.910156-3.078125-2.238282-4.621094-6.027344-3.976562-9.78125l5.011718-29.226563-21.234375-20.699219c-2.726562-2.65625-3.707031-6.628906-2.53125-10.25 1.175781-3.621093 4.308594-6.261718 8.074219-6.808593l29.347656-4.261719 13.121094-26.59375c1.6875-3.414062 5.164062-5.574219 8.96875-5.574219s7.28125 2.160157 8.96875 5.574219l13.125 26.59375 29.34375 4.261719c3.769531.546875 6.898438 3.1875 8.074219 6.808593 1.175781 3.621094.195312 7.59375-2.53125 10.25l-21.234375 20.699219 5.011718 29.226563c.644532 3.753906-.898437 7.542968-3.976562 9.78125-3.082031 2.234375-7.164062 2.53125-10.53125.761718l-26.25-13.800781-26.25 13.800781c-1.460938.769532-3.058594 1.148438-4.652344 1.148438zm2.390625-61.796875 10.492188 10.226563c2.355469 2.296874 3.433593 5.605468 2.875 8.851562l-2.476563 14.4375 12.96875-6.816406c2.914063-1.53125 6.394532-1.53125 9.304688 0l12.96875 6.816406-2.476563-14.4375c-.558593-3.242188.519531-6.554688 2.875-8.851562l10.492188-10.226563-14.5-2.105469c-3.257813-.472656-6.070313-2.519531-7.527344-5.46875l-6.484375-13.140625-6.484375 13.140625c-1.457031 2.949219-4.269531 4.996094-7.527344 5.46875zm0 0"/><path d="m426.898438 197c-1.589844 0-3.1875-.378906-4.652344-1.148438l-26.246094-13.800781-26.246094 13.800781c-3.371094 1.769532-7.453125 1.476563-10.53125-.761718-3.082031-2.238282-4.625-6.027344-3.980468-9.78125l5.011718-29.226563-21.234375-20.699219c-2.726562-2.65625-3.707031-6.628906-2.53125-10.25 1.179688-3.621093 4.308594-6.261718 8.074219-6.808593l29.347656-4.261719 13.121094-26.59375c1.6875-3.414062 5.164062-5.574219 8.96875-5.574219 3.808594 0 7.28125 2.160157 8.96875 5.574219l13.125 26.59375 29.347656 4.261719c3.765625.546875 6.894532 3.1875 8.070313 6.808593 1.175781 3.621094.195312 7.59375-2.53125 10.25l-21.234375 20.699219 5.015625 29.226563c.640625 3.753906-.902344 7.542968-3.980469 9.78125-1.746094 1.265625-3.808594 1.910156-5.882812 1.910156zm-30.898438-36.246094c1.597656 0 3.195312.382813 4.652344 1.148438l12.96875 6.816406-2.476563-14.4375c-.558593-3.246094.519531-6.554688 2.875-8.851562l10.492188-10.226563-14.5-2.105469c-3.257813-.476562-6.070313-2.519531-7.527344-5.472656l-6.484375-13.136719-6.484375 13.140625c-1.457031 2.949219-4.269531 4.996094-7.527344 5.46875l-14.5 2.105469 10.492188 10.226563c2.355469 2.296874 3.433593 5.605468 2.875 8.851562l-2.476563 14.4375 12.96875-6.816406c1.457032-.765625 3.054688-1.148438 4.652344-1.148438zm0 0"/><path d="m146.902344 197c-1.59375 0-3.191406-.378906-4.652344-1.148438l-26.25-13.800781-26.25 13.800781c-3.367188 1.769532-7.449219 1.476563-10.53125-.761718-3.078125-2.238282-4.621094-6.027344-3.976562-9.78125l5.011718-29.226563-21.234375-20.699219c-2.726562-2.65625-3.707031-6.628906-2.53125-10.25 1.175781-3.621093 4.308594-6.261718 8.074219-6.808593l29.347656-4.261719 13.121094-26.59375c1.6875-3.414062 5.164062-5.574219 8.96875-5.574219s7.28125 2.160157 8.96875 5.574219l13.121094 26.59375 29.347656 4.261719c3.765625.546875 6.898438 3.1875 8.074219 6.808593 1.175781 3.621094.195312 7.59375-2.53125 10.25l-21.234375 20.699219 5.011718 29.226563c.644532 3.753906-.898437 7.542968-3.976562 9.78125-1.742188 1.265625-3.808594 1.910156-5.878906 1.910156zm-30.902344-36.246094c1.597656 0 3.195312.382813 4.652344 1.148438l12.96875 6.816406-2.476563-14.4375c-.558593-3.246094.515625-6.554688 2.875-8.851562l10.492188-10.226563-14.5-2.105469c-3.257813-.476562-6.074219-2.519531-7.527344-5.472656l-6.484375-13.136719-6.484375 13.140625c-1.457031 2.949219-4.269531 4.996094-7.527344 5.46875l-14.5 2.105469 10.492188 10.226563c2.355469 2.296874 3.433593 5.605468 2.875 8.851562l-2.476563 14.4375 12.96875-6.816406c1.457032-.765625 3.054688-1.148438 4.652344-1.148438zm0 0"/><path d="m356.898438 331.105469c-1.589844 0-3.1875-.378907-4.652344-1.148438l-26.246094-13.800781-26.246094 13.800781c-3.371094 1.769531-7.453125 1.476563-10.53125-.761719-3.082031-2.238281-4.625-6.027343-3.980468-9.78125l5.011718-29.226562-21.234375-20.699219c-2.726562-2.65625-3.707031-6.632812-2.53125-10.25 1.179688-3.621093 4.308594-6.261719 8.074219-6.808593l29.347656-4.265626 13.121094-26.589843c1.6875-3.414063 5.164062-5.574219 8.96875-5.574219 3.808594 0 7.28125 2.160156 8.96875 5.574219l13.125 26.589843 29.347656 4.265626c3.765625.546874 6.894532 3.1875 8.070313 6.808593 1.175781 3.617188.195312 7.59375-2.53125 10.25l-21.234375 20.699219 5.015625 29.226562c.640625 3.753907-.902344 7.542969-3.980469 9.78125-1.746094 1.265626-3.808594 1.910157-5.882812 1.910157zm-30.898438-36.246094c1.597656 0 3.195312.382813 4.652344 1.148437l12.96875 6.816407-2.476563-14.4375c-.558593-3.246094.519531-6.554688 2.875-8.851563l10.492188-10.226562-14.5-2.105469c-3.257813-.476563-6.070313-2.519531-7.527344-5.472656l-6.484375-13.136719-6.484375 13.140625c-1.457031 2.949219-4.269531 4.996094-7.527344 5.46875l-14.5 2.105469 10.492188 10.226562c2.355469 2.300782 3.433593 5.609375 2.875 8.851563l-2.476563 14.4375 12.96875-6.816407c1.457032-.765624 3.054688-1.148437 4.652344-1.148437zm0 0"/><path d="m216.902344 331.105469c-1.59375 0-3.191406-.378907-4.652344-1.148438l-26.25-13.800781-26.25 13.800781c-3.367188 1.769531-7.449219 1.476563-10.53125-.761719-3.078125-2.238281-4.621094-6.027343-3.976562-9.78125l5.011718-29.226562-21.234375-20.699219c-2.726562-2.65625-3.707031-6.632812-2.53125-10.25 1.175781-3.621093 4.308594-6.261719 8.074219-6.808593l29.347656-4.265626 13.121094-26.589843c1.6875-3.414063 5.164062-5.574219 8.96875-5.574219s7.28125 2.160156 8.96875 5.574219l13.121094 26.589843 29.347656 4.265626c3.765625.546874 6.898438 3.1875 8.074219 6.808593 1.175781 3.617188.195312 7.59375-2.53125 10.25l-21.234375 20.699219 5.011718 29.226562c.644532 3.753907-.898437 7.542969-3.976562 9.78125-1.742188 1.265626-3.808594 1.910157-5.878906 1.910157zm-30.902344-36.246094c1.597656 0 3.195312.382813 4.652344 1.148437l12.96875 6.816407-2.476563-14.4375c-.558593-3.246094.515625-6.554688 2.875-8.851563l10.492188-10.226562-14.5-2.105469c-3.257813-.476563-6.074219-2.519531-7.527344-5.472656l-6.484375-13.132813-6.484375 13.136719c-1.457031 2.949219-4.269531 4.996094-7.527344 5.46875l-14.5 2.105469 10.492188 10.226562c2.359375 2.300782 3.433593 5.609375 2.875 8.851563l-2.476563 14.4375 12.96875-6.816407c1.457032-.765624 3.054688-1.148437 4.652344-1.148437zm0 0"/><path d="m472 .5h-432c-22.054688 0-40 17.945312-40 40v332c0 22.054688 17.945312 40 40 40h432c22.054688 0 40-17.945312 40-40v-332c0-22.054688-17.945312-40-40-40zm0 392h-432c-11.027344 0-20-8.972656-20-20v-332c0-11.027344 8.972656-20 20-20h432c11.027344 0 20 8.972656 20 20v312h-70c-5.523438 0-10 4.476562-10 10s4.476562 10 10 10h70c0 11.027344-8.972656 20-20 20zm0 0"/><path d="m382.019531 372.5c-5.523437 0-10.003906-4.476562-10.003906-10s4.472656-10 9.996094-10h.007812c5.523438 0 10 4.476562 10 10s-4.476562 10-10 10zm0 0"/></svg>